<svg version="1.1" viewBox="0.0 0.0 960.0 720.0" fill="none" stroke="none" stroke-linecap="square" stroke-miterlimit="10" xmlns:xlink="http://www.w3.org/1999/xlink" xmlns="http://www.w3.org/2000/svg"><clipPath id="p.0"><path d="m0 0l960.0 0l0 720.0l-960.0 0l0 -720.0z" clip-rule="nonzero"/></clipPath><g clip-path="url(#p.0)"><path fill="#000000" fill-opacity="0.0" d="m0 0l960.0 0l0 720.0l-960.0 0z" fill-rule="evenodd"/><path fill="#000000" fill-opacity="0.0" d="m71.07087 143.85826l817.8583 0l0 432.28345l-817.8583 0z" fill-rule="evenodd"/><path fill="#42cedd" d="m366.03516 536.8583l0 -286.32812l38.875 0l150.39062 224.79689l0 -224.79689l36.328125 0l0 286.32812l-38.875 0l-150.39062 -225.0l0 225.0l-36.328125 0z" fill-rule="nonzero"/><path fill="#000000" fill-opacity="0.0" d="m179.56937 284.65295l86.77167 -99.0551l123.590546 108.25197l-86.77167 99.055115z" fill-rule="evenodd"/><path fill="#42cedd" d="m298.3368 349.21606l-68.92436 -60.3703l26.768936 -30.55838q8.071869 -9.214523 14.129639 -12.383209q6.05777 -3.1687012 13.271454 -1.918457q7.213684 1.2502441 12.902527 6.2330627q7.334381 6.4241333 8.205536 15.578705q0.8711548 9.154602 -6.455017 20.268555q4.9106445 -2.096344 8.250519 -2.4943542q7.167755 -0.7840271 15.798431 0.4610901l29.260742 4.442627l-10.048645 11.471161l-22.329132 -3.4394836q-9.7065735 -1.4396973 -15.262726 -1.7366333q-5.556122 -0.29690552 -8.664001 0.5951233q-3.1078796 0.8919983 -5.478302 2.554596q-1.6881409 1.2631531 -4.7768555 4.7891235l-9.266174 10.577911l30.606934 26.80835l-7.989502 9.120514zm-30.515991 -42.847168l17.17331 -19.60437q5.4773254 -6.252716 7.2731323 -10.911133q1.7958069 -4.6584167 0.55752563 -8.983337q-1.2382812 -4.32489 -4.5763855 -7.2486877q-4.8895874 -4.2827606 -11.148926 -3.4923706q-6.2593384 0.7904053 -12.972168 8.453491l-19.108887 21.813995l22.802399 19.972412z" fill-rule="nonzero"/><path fill="#000000" fill-opacity="0.0" d="m251.8614 152.07323l126.645676 -36.125984l45.07086 158.01575l-126.64569 36.125977z" fill-rule="evenodd"/><path fill="#42cedd" d="m297.19592 229.87695q-6.257263 -21.937576 1.9827881 -37.70912q8.240051 -15.771561 26.871826 -21.086334q12.200836 -3.480301 23.66043 -0.44485474q11.459625 3.0354462 19.572723 11.997452q8.113098 8.962006 11.884613 22.184647q3.8229065 13.402954 1.4308777 25.524063q-2.3920288 12.121124 -10.757507 20.389267q-8.365448 8.268143 -19.845032 11.542709q-12.441254 3.5488892 -23.95227 0.33312988q-11.511047 -3.2157288 -19.525421 -12.173416q-8.014404 -8.957672 -11.323029 -20.55754zm12.07196 -3.248581q4.542938 15.927277 15.721863 22.649902q11.178955 6.7226105 24.101013 3.0365753q13.162476 -3.7546234 19.026917 -15.436417q5.8644714 -11.681778 1.01297 -28.690903q-3.068634 -10.758423 -8.993439 -17.744934q-5.924835 -6.986496 -14.186798 -9.406738q-8.261993 -2.4202423 -16.976868 0.06568909q-12.3811035 3.5317535 -18.880585 14.58226q-6.499481 11.050507 -0.82507324 30.944565z" fill-rule="nonzero"/><path fill="#000000" fill-opacity="0.0" d="m370.79718 95.63776l131.68503 0l0 164.28348l-131.68503 0z" fill-rule="evenodd"/><path fill="#42cedd" d="m460.42093 135.89276l12.125 0l0 52.9375q0 13.8125 -3.125 21.9375q-3.125 8.125 -11.28125 13.21875q-8.15625 5.09375 -21.40625 5.09375q-12.875 0 -21.0625 -4.4375q-8.1875 -4.4375 -11.6875 -12.84375q-3.5 -8.40625 -3.5 -22.96875l0 -52.9375l12.125 0l0 52.875q0 11.9375 2.21875 17.59375q2.21875 5.65625 7.625 8.71875q5.40625 3.0625 13.21875 3.0625q13.375 0 19.0625 -6.0625q5.6875 -6.0625 5.6875 -23.3125l0 -52.875z" fill-rule="nonzero"/><path fill="#000000" fill-opacity="0.0" d="m468.95187 95.62281l131.68503 0.03149414l0 164.28348l-131.68503 -0.03149414z" fill-rule="evenodd"/><path fill="#42cedd" d="m528.8881 227.51715l0 -80.8125l-30.18747 -0.007217407l0 -10.8125l72.62497 0.017364502l0 10.8125l-30.3125 -0.007247925l0 80.8125l-12.125 -0.00289917z" fill-rule="nonzero"/><path fill="#000000" fill-opacity="0.0" d="m584.5411 105.30303l126.299255 37.22834l-46.425232 157.6063l-126.299194 -37.228333z" fill-rule="evenodd"/><path fill="#42cedd" d="m579.19275 241.21643l25.889587 -87.891235l63.546875 18.731277l-3.0551758 10.371872l-51.916626 -15.303085l-7.9293213 26.91893l48.619324 14.331192l-3.0375366 10.311935l-48.619324 -14.331192l-8.812378 29.916595l53.954895 15.9039l-3.0551758 10.371902l-65.585144 -19.332092z" fill-rule="nonzero"/><path fill="#000000" fill-opacity="0.0" d="m728.22217 185.32976l88.188965 97.79527l-121.98425 110.04724l-88.188965 -97.79526z" fill-rule="evenodd"/><path fill="#42cedd" d="m671.5162 275.41656l8.402039 7.8240967q-4.560547 5.2085876 -5.844055 10.364777q-1.2835083 5.1562195 0.8833618 11.618866q2.1669312 6.462616 7.3988647 12.264496q4.645996 5.152069 9.735168 7.71579q5.0891113 2.5637207 9.494507 2.0827026q4.4053955 -0.48104858 7.560974 -3.3278809q3.2020874 -2.8887024 3.9177856 -6.9013367q0.71569824 -4.012665 -1.5108032 -9.748138q-1.4021606 -3.7013855 -7.606262 -15.107666q-6.2041626 -11.4062805 -7.598999 -16.966095q-1.8425293 -7.176178 -0.21594238 -12.978546q1.6265259 -5.8023987 6.3135986 -10.030777q5.151123 -4.647049 12.266235 -5.7628937q7.1151123 -1.1158447 14.5 2.4071045q7.3848267 3.5229492 13.579468 10.3923645q6.82251 7.5656433 9.597168 15.542236q2.7747192 7.976593 0.84558105 15.356628q-1.9290771 7.380066 -7.706238 13.012756l-8.4348755 -8.047089q5.822693 -6.5154724 5.4970093 -13.502808q-0.3256836 -6.9873047 -7.399292 -14.831451q-7.366577 -8.169037 -13.729187 -9.205139q-6.36261 -1.0361023 -10.585571 2.7736511q-3.6661377 3.3073425 -3.6470337 8.088104q-0.022827148 4.734375 7.3933105 17.951324q7.4161377 13.216919 9.243164 18.976044q2.6195679 8.411163 0.9729614 15.0312805q-1.6465454 6.620117 -7.1225586 11.560211q-5.4295044 4.898224 -13.036926 6.1214905q-7.607361 1.2232361 -15.5286255 -2.1946106q-7.9212646 -3.4178162 -14.492615 -10.704956q-8.329285 -9.236603 -11.267334 -17.907593q-2.9379883 -8.67099 -0.73358154 -17.09903q2.2043457 -8.42804 8.858704 -14.767914z" fill-rule="nonzero"/></g></svg>