<svg version="1.1" viewBox="0.0 0.0 520.3490813648294 488.96062992125985" fill="none" stroke="none" stroke-linecap="square" stroke-miterlimit="10" xmlns:xlink="http://www.w3.org/1999/xlink" xmlns="http://www.w3.org/2000/svg"><clipPath id="p.0"><path d="m0 0l520.34906 0l0 488.96063l-520.34906 0l0 -488.96063z" clip-rule="nonzero"/></clipPath><g clip-path="url(#p.0)"><path fill="#000000" fill-opacity="0.0" d="m0 0l520.34906 0l0 488.96063l-520.34906 0z" fill-rule="evenodd"/><path fill="#000000" fill-opacity="0.0" d="m-153.08661 56.677166l817.8583 0l0 432.28348l-817.8583 0z" fill-rule="evenodd"/><path fill="#004e57" d="m141.87769 449.67715l0 -286.32812l38.875 0l150.39062 224.79686l0 -224.79686l36.328125 0l0 286.32812l-38.875 0l-150.39062 -224.99998l0 224.99998l-36.328125 0z" fill-rule="nonzero"/><path fill="#000000" fill-opacity="0.0" d="m-44.58811 197.47186l86.77165 -99.055115l123.59055 108.25197l-86.77165 99.05513z" fill-rule="evenodd"/><path fill="#004e57" d="m74.179306 262.03497l-68.92436 -60.370316l26.768944 -30.558365q8.071865 -9.214539 14.129631 -12.3832245q6.05777 -3.168686 13.271458 -1.918457q7.213688 1.2502441 12.902531 6.2330627q7.334381 6.424118 8.205536 15.57872q0.87114716 9.154587 -6.4550247 20.26854q4.91066 -2.0963287 8.250526 -2.4943542q7.1677475 -0.7840271 15.798439 0.4610901l29.26075 4.442642l-10.048653 11.471146l-22.329155 -3.4394836q-9.706566 -1.4397125 -15.262695 -1.736618q-5.556137 -0.29690552 -8.664024 0.5950928q-3.1078873 0.89201355 -5.4782867 2.5546112q-1.6881447 1.2631683 -4.7768707 4.789139l-9.2661705 10.577896l30.60693 26.808365l-7.989502 9.120514zm-30.515991 -42.847168l17.173306 -19.60437q5.477337 -6.252716 7.273144 -10.911133q1.7957993 -4.658432 0.557518 -8.983337q-1.2382889 -4.3249207 -4.5763702 -7.2487183q-4.8895874 -4.2827454 -11.148926 -3.4923553q-6.2593384 0.7904053 -12.972164 8.453491l-19.108908 21.81398l22.8024 19.972443z" fill-rule="nonzero"/><path fill="#000000" fill-opacity="0.0" d="m27.703918 64.89212l126.645676 -36.125984l45.07086 158.01575l-126.64567 36.125977z" fill-rule="evenodd"/><path fill="#004e57" d="m73.038445 142.69585q-6.2572556 -21.937569 1.9827805 -37.70912q8.240044 -15.771561 26.871834 -21.086327q12.200829 -3.4803085 23.66043 -0.44486237q11.459602 3.0354462 19.572716 11.997452q8.113113 8.962013 11.884613 22.184654q3.8229218 13.402962 1.430893 25.52407q-2.3920288 12.121109 -10.757507 20.389252q-8.365463 8.268143 -19.845055 11.542725q-12.441231 3.5488892 -23.952263 0.33312988q-11.51104 -3.2157593 -19.525421 -12.173431q-8.014389 -8.957672 -11.323021 -20.55754zm12.071945 -3.2485657q4.542938 15.927277 15.721893 22.649887q11.178947 6.7226257 24.100998 3.0365753q13.162468 -3.7546234 19.026924 -15.436401q5.8644714 -11.681793 1.0129547 -28.690918q-3.068634 -10.758423 -8.993454 -17.744926q-5.92482 -6.9865036 -14.186783 -9.406746q-8.261978 -2.4202423 -16.976845 0.06569672q-12.381134 3.531746 -18.880608 14.5822525q-6.4994736 11.050507 -0.8250809 30.94458z" fill-rule="nonzero"/><path fill="#000000" fill-opacity="0.0" d="m146.6397 8.4566555l131.68504 0l0 164.28348l-131.68504 0z" fill-rule="evenodd"/><path fill="#004e57" d="m236.26346 48.711662l12.125 0l0 52.9375q0 13.8125 -3.125 21.9375q-3.125 8.124992 -11.28125 13.218742q-8.15625 5.09375 -21.40625 5.09375q-12.875 0 -21.0625 -4.4375q-8.1875 -4.4375 -11.6875 -12.843742q-3.5 -8.40625 -3.5 -22.96875l0 -52.9375l12.125 0l0 52.875q0 11.9375 2.21875 17.59375q2.21875 5.65625 7.625 8.71875q5.40625 3.0624924 13.21875 3.0624924q13.375 0 19.0625 -6.0624924q5.6875 -6.0625 5.6875 -23.3125l0 -52.875z" fill-rule="nonzero"/><path fill="#000000" fill-opacity="0.0" d="m244.7944 8.441706l131.68503 0.031496048l0 164.28346l-131.68503 -0.03149414z" fill-rule="evenodd"/><path fill="#004e57" d="m304.73068 140.33604l0 -80.8125l-30.1875 -0.007221222l0 -10.8125l72.625 0.017372131l0 10.8125l-30.3125 -0.0072517395l0 80.8125l-12.125 -0.00289917z" fill-rule="nonzero"/><path fill="#000000" fill-opacity="0.0" d="m364.507 0.0011926509l126.299194 37.228344l-46.4252 157.60631l-126.299194 -37.228348z" fill-rule="evenodd"/><path fill="#004e57" d="m359.1586 135.9146l25.889618 -87.891235l63.546875 18.73127l-3.0552063 10.37188l-51.916565 -15.303089l-7.9293823 26.918941l48.619354 14.331184l-3.0375366 10.311928l-48.619324 -14.331184l-8.812378 29.916595l53.954895 15.9039l-3.0552063 10.371887l-65.585144 -19.332077z" fill-rule="nonzero"/><path fill="#000000" fill-opacity="0.0" d="m491.98596 64.975426l88.188965 97.79528l-121.98425 110.047226l-88.188965 -97.79526z" fill-rule="evenodd"/><path fill="#004e57" d="m435.27994 155.06224l8.402069 7.824112q-4.5605774 5.208557 -5.8440857 10.364777q-1.2834778 5.156204 0.88339233 11.618835q2.1669006 6.462631 7.3988647 12.264511q4.6459656 5.152054 9.735138 7.71579q5.089142 2.5637207 9.494507 2.0826874q4.4053955 -0.48103333 7.5610046 -3.3278656q3.202057 -2.8887024 3.9177551 -6.901352q0.71569824 -4.012665 -1.5108032 -9.748123q-1.4021301 -3.7013855 -7.606262 -15.107666q-6.2041626 -11.406296 -7.598999 -16.96611q-1.8424988 -7.1761627 -0.21594238 -12.978546q1.6265564 -5.8023834 6.3135986 -10.030777q5.151123 -4.6470337 12.266235 -5.762886q7.115143 -1.1158447 14.5 2.4070969q7.384857 3.5229645 13.579498 10.39238q6.82251 7.5656433 9.597168 15.542221q2.7747192 7.976593 0.84558105 15.356644q-1.9291382 7.380066 -7.7062683 13.012756l-8.434845 -8.047073q5.8226624 -6.515503 5.4970093 -13.502823q-0.3256836 -6.98732 -7.399292 -14.831451q-7.3666077 -8.169037 -13.729187 -9.205139q-6.36261 -1.0361023 -10.585602 2.7736359q-3.6660767 3.3073425 -3.6470337 8.0881195q-0.022827148 4.734375 7.3933105 17.95131q7.4161377 13.216934 9.243164 18.976059q2.6195679 8.411163 0.97299194 15.0312805q-1.6465759 6.620117 -7.1225586 11.560211q-5.429535 4.898224 -13.036926 6.121475q-7.6073914 1.2232361 -15.528656 -2.1945953q-7.9212646 -3.4178314 -14.492615 -10.704971q-8.329285 -9.236588 -11.267303 -17.907578q-2.9380188 -8.671005 -0.73361206 -17.099045q2.2043762 -8.42804 8.858704 -14.767899z" fill-rule="nonzero"/><path fill="#004e57" d="m160.24907 478.29544l-32.0 -32.0l16.0 0l0 -79.18109l32.0 0l0 79.18109l16.0 0z" fill-rule="evenodd"/><path fill="#004e57" d="m350.0811 132.24033l-32.0 32.0l16.0 0l0 79.18111l32.0 0l0 -79.18111l16.0 0z" fill-rule="evenodd"/></g></svg>